<svg xmlns="http://www.w3.org/2000/svg" xmlns:xlink="http://www.w3.org/1999/xlink" width="1920" zoomAndPan="magnify" viewBox="0 0 1440 809.999993" height="1080" preserveAspectRatio="xMidYMid meet" version="1.0"><defs><g/><clipPath id="id1"><path d="M 682 271 L 714.882812 271 L 714.882812 305 L 682 305 Z M 682 271 " clip-rule="nonzero"/></clipPath><clipPath id="id2"><path d="M 655 241.339844 L 675 241.339844 L 675 260 L 655 260 Z M 655 241.339844 " clip-rule="nonzero"/></clipPath></defs><path fill="#0071a8" d="M 575.367188 296.09375 C 607.089844 282.882812 639.59375 280.707031 665.566406 287.910156 C 636.035156 274.824219 594.976562 275.175781 555.082031 291.785156 C 491.820312 318.144531 455.496094 375.363281 473.941406 419.601562 C 487.542969 452.210938 527.113281 468.636719 572.328125 464.46875 C 517.117188 451.472656 504.699219 427.171875 499.730469 415.21875 C 482.527344 373.984375 516.398438 320.640625 575.367188 296.09375 Z M 575.367188 296.09375 " fill-opacity="1" fill-rule="nonzero"/><path fill="#62c7e3" d="M 708.652344 328.210938 C 705.171875 319.875 699.574219 312.839844 692.414062 307.234375 C 668.832031 288.722656 628.140625 285.609375 588.828125 301.976562 C 559.957031 314.003906 538 333.972656 527.023438 355.53125 C 540.117188 338.859375 559.375 324.105469 582.941406 314.296875 C 632.296875 293.746094 683.703125 301.746094 705.445312 331.320312 C 707.976562 334.769531 710.136719 338.492188 711.808594 342.507812 C 712.007812 342.984375 712.160156 343.472656 712.347656 343.949219 C 711.960938 338.554688 710.765625 333.28125 708.652344 328.210938 Z M 708.652344 328.210938 " fill-opacity="1" fill-rule="nonzero"/><g clip-path="url(#id1)"><path fill="#14bbe2" d="M 714.722656 287.832031 C 702.578125 290.070312 700.769531 291.878906 698.53125 304.015625 C 696.292969 291.878906 694.484375 290.070312 682.339844 287.832031 C 694.484375 285.59375 696.292969 283.789062 698.53125 271.652344 C 700.769531 283.800781 702.578125 285.609375 714.722656 287.832031 Z M 714.722656 287.832031 " fill-opacity="1" fill-rule="nonzero"/></g><g clip-path="url(#id2)"><path fill="#62c7e3" d="M 674.351562 250.519531 C 668.3125 252.25 666.902344 253.660156 665.167969 259.699219 C 663.433594 253.660156 662.023438 252.25 655.984375 250.519531 C 662.023438 248.789062 663.433594 247.378906 665.167969 241.339844 C 666.902344 247.378906 668.3125 248.789062 674.351562 250.519531 Z M 674.351562 250.519531 " fill-opacity="1" fill-rule="nonzero"/></g><path fill="#0071a8" d="M 698.53125 256.664062 C 695.511719 257.539062 694.804688 258.242188 693.933594 261.261719 C 693.058594 258.242188 692.351562 257.539062 689.332031 256.664062 C 692.351562 255.789062 693.058594 255.085938 693.933594 252.066406 C 694.804688 255.085938 695.511719 255.789062 698.53125 256.664062 Z M 698.53125 256.664062 " fill-opacity="1" fill-rule="nonzero"/><g fill="#0071a8" fill-opacity="1"><g transform="translate(631.259336, 420.390032)"><g><path d="M 13.625 -28.140625 L 13.625 0 L 3.296875 0 L 3.296875 -45.34375 L 13.625 -45.34375 L 31.65625 -17.203125 L 31.765625 -17.203125 L 31.765625 -45.34375 L 42.109375 -45.34375 L 42.109375 0 L 31.765625 0 L 13.75 -28.140625 Z M 13.625 -28.140625 "/></g></g></g><g fill="#0071a8" fill-opacity="1"><g transform="translate(676.650977, 420.390032)"><g><path d="M 1.265625 -22.703125 C 1.265625 -29.265625 3.5 -34.816406 7.96875 -39.359375 C 12.4375 -43.898438 17.820312 -46.171875 24.125 -46.171875 C 30.46875 -46.171875 35.851562 -43.90625 40.28125 -39.375 C 44.71875 -34.851562 46.9375 -29.296875 46.9375 -22.703125 C 46.9375 -16.066406 44.753906 -10.484375 40.390625 -5.953125 C 36.035156 -1.429688 30.613281 0.828125 24.125 0.828125 C 17.5 0.828125 12.03125 -1.414062 7.71875 -5.90625 C 3.414062 -10.394531 1.265625 -15.992188 1.265625 -22.703125 Z M 12.421875 -22.703125 C 12.421875 -20.316406 12.785156 -18.144531 13.515625 -16.1875 C 14.253906 -14.226562 15.539062 -12.570312 17.375 -11.21875 C 19.207031 -9.863281 21.457031 -9.1875 24.125 -9.1875 C 27.976562 -9.1875 30.882812 -10.503906 32.84375 -13.140625 C 34.800781 -15.773438 35.78125 -18.960938 35.78125 -22.703125 C 35.78125 -26.398438 34.78125 -29.578125 32.78125 -32.234375 C 30.789062 -34.890625 27.90625 -36.21875 24.125 -36.21875 C 20.394531 -36.21875 17.507812 -34.890625 15.46875 -32.234375 C 13.4375 -29.578125 12.421875 -26.398438 12.421875 -22.703125 Z M 12.421875 -22.703125 "/></g></g></g><g fill="#0071a8" fill-opacity="1"><g transform="translate(724.84526, 420.390032)"><g><path d="M 3.296875 -45.34375 L 19.515625 -45.34375 C 23.878906 -45.34375 27.429688 -44.179688 30.171875 -41.859375 C 32.921875 -39.535156 34.296875 -36.207031 34.296875 -31.875 C 34.296875 -28.539062 33.460938 -25.75 31.796875 -23.5 C 30.128906 -21.25 27.867188 -19.664062 25.015625 -18.75 L 40.625 0 L 27.484375 0 L 13.625 -17.921875 L 13.625 0 L 3.296875 0 Z M 13.625 -25.234375 L 14.84375 -25.234375 C 15.789062 -25.234375 16.59375 -25.25 17.25 -25.28125 C 17.914062 -25.320312 18.671875 -25.453125 19.515625 -25.671875 C 20.359375 -25.890625 21.035156 -26.195312 21.546875 -26.59375 C 22.054688 -27 22.492188 -27.585938 22.859375 -28.359375 C 23.234375 -29.128906 23.421875 -30.0625 23.421875 -31.15625 C 23.421875 -32.257812 23.234375 -33.195312 22.859375 -33.96875 C 22.492188 -34.738281 22.054688 -35.320312 21.546875 -35.71875 C 21.035156 -36.125 20.359375 -36.4375 19.515625 -36.65625 C 18.671875 -36.882812 17.914062 -37.015625 17.25 -37.046875 C 16.59375 -37.085938 15.789062 -37.109375 14.84375 -37.109375 L 13.625 -37.109375 Z M 13.625 -25.234375 "/></g></g></g><g fill="#0071a8" fill-opacity="1"><g transform="translate(764.192009, 420.390032)"><g><path d="M 0.4375 -36.28125 L 0.4375 -45.34375 L 32.328125 -45.34375 L 32.328125 -36.28125 L 21.546875 -36.28125 L 21.546875 0 L 11.21875 0 L 11.21875 -36.28125 Z M 0.4375 -36.28125 "/></g></g></g><g fill="#0071a8" fill-opacity="1"><g transform="translate(796.944334, 420.390032)"><g><path d="M 29.25 -45.34375 L 29.25 -36.28125 L 13.625 -36.28125 L 13.625 -27.265625 L 28.578125 -27.265625 L 28.578125 -18.1875 L 13.625 -18.1875 L 13.625 -9.0625 L 29.25 -9.0625 L 29.25 0 L 3.296875 0 L 3.296875 -45.34375 Z M 29.25 -45.34375 "/></g></g></g><g fill="#0071a8" fill-opacity="1"><g transform="translate(828.817394, 420.390032)"><g><path d="M 13.625 -45.34375 L 13.625 -9.0625 L 29.25 -9.0625 L 29.25 0 L 3.296875 0 L 3.296875 -45.34375 Z M 13.625 -45.34375 "/></g></g></g><g fill="#5b5b5b" fill-opacity="1"><g transform="translate(605.118017, 462.903334)"><g><path d="M 3.625 -6.078125 L 3.625 0 L 1.671875 0 L 1.671875 -15.5 L 6.609375 -15.5 C 8.054688 -15.5 9.191406 -15.066406 10.015625 -14.203125 C 10.835938 -13.347656 11.25 -12.203125 11.25 -10.765625 C 11.25 -9.273438 10.851562 -8.125 10.0625 -7.3125 C 9.28125 -6.507812 8.175781 -6.097656 6.75 -6.078125 Z M 3.625 -7.75 L 6.609375 -7.75 C 7.472656 -7.75 8.132812 -8.003906 8.59375 -8.515625 C 9.0625 -9.035156 9.296875 -9.78125 9.296875 -10.75 C 9.296875 -11.675781 9.054688 -12.421875 8.578125 -12.984375 C 8.109375 -13.546875 7.457031 -13.828125 6.625 -13.828125 L 3.625 -13.828125 Z M 3.625 -7.75 "/></g></g></g><g fill="#5b5b5b" fill-opacity="1"><g transform="translate(622.03754, 462.903334)"><g><path d="M 6.359375 -6.265625 L 3.625 -6.265625 L 3.625 0 L 1.671875 0 L 1.671875 -15.5 L 6.015625 -15.5 C 7.535156 -15.5 8.6875 -15.101562 9.46875 -14.3125 C 10.25 -13.519531 10.640625 -12.363281 10.640625 -10.84375 C 10.640625 -9.882812 10.425781 -9.046875 10 -8.328125 C 9.582031 -7.617188 8.988281 -7.082031 8.21875 -6.71875 L 11.21875 -0.125 L 11.21875 0 L 9.109375 0 Z M 3.625 -7.953125 L 6 -7.953125 C 6.8125 -7.953125 7.460938 -8.210938 7.953125 -8.734375 C 8.441406 -9.253906 8.6875 -9.957031 8.6875 -10.84375 C 8.6875 -12.832031 7.78125 -13.828125 5.96875 -13.828125 L 3.625 -13.828125 Z M 3.625 -7.953125 "/></g></g></g><g fill="#5b5b5b" fill-opacity="1"><g transform="translate(638.446265, 462.903334)"><g><path d="M 11.765625 -6.390625 C 11.765625 -4.273438 11.3125 -2.644531 10.40625 -1.5 C 9.5 -0.351562 8.21875 0.21875 6.5625 0.21875 C 4.96875 0.21875 3.707031 -0.335938 2.78125 -1.453125 C 1.851562 -2.566406 1.367188 -4.140625 1.328125 -6.171875 L 1.328125 -9.078125 C 1.328125 -11.148438 1.785156 -12.773438 2.703125 -13.953125 C 3.617188 -15.128906 4.898438 -15.71875 6.546875 -15.71875 C 8.171875 -15.71875 9.4375 -15.15625 10.34375 -14.03125 C 11.257812 -12.90625 11.734375 -11.300781 11.765625 -9.21875 Z M 9.8125 -9.109375 C 9.8125 -10.742188 9.539062 -11.960938 9 -12.765625 C 8.46875 -13.566406 7.648438 -13.96875 6.546875 -13.96875 C 5.472656 -13.96875 4.660156 -13.5625 4.109375 -12.75 C 3.554688 -11.9375 3.273438 -10.742188 3.265625 -9.171875 L 3.265625 -6.390625 C 3.265625 -4.804688 3.539062 -3.597656 4.09375 -2.765625 C 4.644531 -1.929688 5.46875 -1.515625 6.5625 -1.515625 C 7.65625 -1.515625 8.460938 -1.898438 8.984375 -2.671875 C 9.515625 -3.441406 9.789062 -4.617188 9.8125 -6.203125 Z M 9.8125 -9.109375 "/></g></g></g><g fill="#5b5b5b" fill-opacity="1"><g transform="translate(656.376733, 462.903334)"><g><path d="M 1.671875 0 L 1.671875 -15.5 L 5.375 -15.5 C 7.175781 -15.5 8.578125 -14.929688 9.578125 -13.796875 C 10.585938 -12.671875 11.09375 -11.082031 11.09375 -9.03125 L 11.09375 -6.4375 C 11.09375 -4.382812 10.582031 -2.796875 9.5625 -1.671875 C 8.550781 -0.554688 7.078125 0 5.140625 0 Z M 3.625 -13.828125 L 3.625 -1.671875 L 5.1875 -1.671875 C 6.5625 -1.671875 7.5625 -2.0625 8.1875 -2.84375 C 8.820312 -3.632812 9.144531 -4.800781 9.15625 -6.34375 L 9.15625 -9.078125 C 9.15625 -10.710938 8.84375 -11.910156 8.21875 -12.671875 C 7.59375 -13.441406 6.644531 -13.828125 5.375 -13.828125 Z M 3.625 -13.828125 "/></g></g></g><g fill="#5b5b5b" fill-opacity="1"><g transform="translate(673.65807, 462.903334)"><g><path d="M 10.921875 -15.5 L 10.921875 -4.484375 C 10.898438 -3.015625 10.46875 -1.863281 9.625 -1.03125 C 8.789062 -0.195312 7.628906 0.21875 6.140625 0.21875 C 4.597656 0.21875 3.421875 -0.1875 2.609375 -1 C 1.804688 -1.8125 1.398438 -2.972656 1.390625 -4.484375 L 1.390625 -15.5 L 3.328125 -15.5 L 3.328125 -4.5625 C 3.328125 -3.519531 3.546875 -2.738281 3.984375 -2.21875 C 4.429688 -1.707031 5.148438 -1.453125 6.140625 -1.453125 C 7.128906 -1.453125 7.84375 -1.707031 8.28125 -2.21875 C 8.726562 -2.738281 8.953125 -3.519531 8.953125 -4.5625 L 8.953125 -15.5 Z M 10.921875 -15.5 "/></g></g></g><g fill="#5b5b5b" fill-opacity="1"><g transform="translate(690.737204, 462.903334)"><g><path d="M 10.734375 -13.828125 L 6.65625 -13.828125 L 6.65625 0 L 4.703125 0 L 4.703125 -13.828125 L 0.640625 -13.828125 L 0.640625 -15.5 L 10.734375 -15.5 Z M 10.734375 -13.828125 "/></g></g></g><g fill="#5b5b5b" fill-opacity="1"><g transform="translate(706.922441, 462.903334)"><g><path d="M 11.765625 -6.390625 C 11.765625 -4.273438 11.3125 -2.644531 10.40625 -1.5 C 9.5 -0.351562 8.21875 0.21875 6.5625 0.21875 C 4.96875 0.21875 3.707031 -0.335938 2.78125 -1.453125 C 1.851562 -2.566406 1.367188 -4.140625 1.328125 -6.171875 L 1.328125 -9.078125 C 1.328125 -11.148438 1.785156 -12.773438 2.703125 -13.953125 C 3.617188 -15.128906 4.898438 -15.71875 6.546875 -15.71875 C 8.171875 -15.71875 9.4375 -15.15625 10.34375 -14.03125 C 11.257812 -12.90625 11.734375 -11.300781 11.765625 -9.21875 Z M 9.8125 -9.109375 C 9.8125 -10.742188 9.539062 -11.960938 9 -12.765625 C 8.46875 -13.566406 7.648438 -13.96875 6.546875 -13.96875 C 5.472656 -13.96875 4.660156 -13.5625 4.109375 -12.75 C 3.554688 -11.9375 3.273438 -10.742188 3.265625 -9.171875 L 3.265625 -6.390625 C 3.265625 -4.804688 3.539062 -3.597656 4.09375 -2.765625 C 4.644531 -1.929688 5.46875 -1.515625 6.5625 -1.515625 C 7.65625 -1.515625 8.460938 -1.898438 8.984375 -2.671875 C 9.515625 -3.441406 9.789062 -4.617188 9.8125 -6.203125 Z M 9.8125 -9.109375 "/></g></g></g><g fill="#5b5b5b" fill-opacity="1"><g transform="translate(724.852905, 462.903334)"><g><path d="M 8.453125 -3.921875 C 8.453125 -4.691406 8.238281 -5.28125 7.8125 -5.6875 C 7.394531 -6.101562 6.640625 -6.503906 5.546875 -6.890625 C 4.453125 -7.285156 3.613281 -7.695312 3.03125 -8.125 C 2.457031 -8.5625 2.023438 -9.050781 1.734375 -9.59375 C 1.453125 -10.144531 1.3125 -10.773438 1.3125 -11.484375 C 1.3125 -12.710938 1.71875 -13.722656 2.53125 -14.515625 C 3.351562 -15.316406 4.429688 -15.71875 5.765625 -15.71875 C 6.671875 -15.71875 7.476562 -15.515625 8.1875 -15.109375 C 8.894531 -14.703125 9.441406 -14.132812 9.828125 -13.40625 C 10.210938 -12.6875 10.40625 -11.890625 10.40625 -11.015625 L 8.453125 -11.015625 C 8.453125 -11.984375 8.21875 -12.726562 7.75 -13.25 C 7.289062 -13.769531 6.628906 -14.03125 5.765625 -14.03125 C 4.972656 -14.03125 4.359375 -13.8125 3.921875 -13.375 C 3.492188 -12.9375 3.28125 -12.320312 3.28125 -11.53125 C 3.28125 -10.875 3.515625 -10.320312 3.984375 -9.875 C 4.453125 -9.4375 5.175781 -9.046875 6.15625 -8.703125 C 7.6875 -8.203125 8.78125 -7.582031 9.4375 -6.84375 C 10.09375 -6.101562 10.421875 -5.132812 10.421875 -3.9375 C 10.421875 -2.6875 10.007812 -1.679688 9.1875 -0.921875 C 8.375 -0.160156 7.265625 0.21875 5.859375 0.21875 C 4.953125 0.21875 4.117188 0.0195312 3.359375 -0.375 C 2.597656 -0.769531 2 -1.320312 1.5625 -2.03125 C 1.125 -2.75 0.90625 -3.570312 0.90625 -4.5 L 2.859375 -4.5 C 2.859375 -3.539062 3.125 -2.789062 3.65625 -2.25 C 4.195312 -1.71875 4.929688 -1.453125 5.859375 -1.453125 C 6.710938 -1.453125 7.359375 -1.671875 7.796875 -2.109375 C 8.234375 -2.554688 8.453125 -3.160156 8.453125 -3.921875 Z M 8.453125 -3.921875 "/></g></g></g><g fill="#5b5b5b" fill-opacity="1"><g transform="translate(740.984952, 462.903334)"><g/></g></g><g fill="#5b5b5b" fill-opacity="1"><g transform="translate(750.817153, 462.903334)"><g><path d="M 1.671875 0 L 1.671875 -15.5 L 5.375 -15.5 C 7.175781 -15.5 8.578125 -14.929688 9.578125 -13.796875 C 10.585938 -12.671875 11.09375 -11.082031 11.09375 -9.03125 L 11.09375 -6.4375 C 11.09375 -4.382812 10.582031 -2.796875 9.5625 -1.671875 C 8.550781 -0.554688 7.078125 0 5.140625 0 Z M 3.625 -13.828125 L 3.625 -1.671875 L 5.1875 -1.671875 C 6.5625 -1.671875 7.5625 -2.0625 8.1875 -2.84375 C 8.820312 -3.632812 9.144531 -4.800781 9.15625 -6.34375 L 9.15625 -9.078125 C 9.15625 -10.710938 8.84375 -11.910156 8.21875 -12.671875 C 7.59375 -13.441406 6.644531 -13.828125 5.375 -13.828125 Z M 3.625 -13.828125 "/></g></g></g><g fill="#5b5b5b" fill-opacity="1"><g transform="translate(768.098497, 462.903334)"><g><path d="M 9.109375 -7.171875 L 3.625 -7.171875 L 3.625 -1.671875 L 10.015625 -1.671875 L 10.015625 0 L 1.671875 0 L 1.671875 -15.5 L 9.90625 -15.5 L 9.90625 -13.828125 L 3.625 -13.828125 L 3.625 -8.84375 L 9.109375 -8.84375 Z M 9.109375 -7.171875 "/></g></g></g><g fill="#5b5b5b" fill-opacity="1"><g transform="translate(783.762312, 462.903334)"><g/></g></g><g fill="#5b5b5b" fill-opacity="1"><g transform="translate(793.594513, 462.903334)"><g><path d="M 11.828125 0 L 9.859375 0 L 9.859375 -7.171875 L 3.625 -7.171875 L 3.625 0 L 1.671875 0 L 1.671875 -15.5 L 3.625 -15.5 L 3.625 -8.84375 L 9.859375 -8.84375 L 9.859375 -15.5 L 11.828125 -15.5 Z M 11.828125 0 "/></g></g></g><g fill="#5b5b5b" fill-opacity="1"><g transform="translate(811.950649, 462.903334)"><g><path d="M 3.703125 0 L 1.75 0 L 1.75 -15.5 L 3.703125 -15.5 Z M 3.703125 0 "/></g></g></g><g fill="#5b5b5b" fill-opacity="1"><g transform="translate(822.240415, 462.903334)"><g><path d="M 11.375 -1.921875 L 11.03125 -1.5 C 10.050781 -0.351562 8.617188 0.21875 6.734375 0.21875 C 5.054688 0.21875 3.738281 -0.335938 2.78125 -1.453125 C 1.832031 -2.566406 1.347656 -4.140625 1.328125 -6.171875 L 1.328125 -9.21875 C 1.328125 -11.382812 1.757812 -13.007812 2.625 -14.09375 C 3.5 -15.175781 4.800781 -15.71875 6.53125 -15.71875 C 8.007812 -15.71875 9.164062 -15.304688 10 -14.484375 C 10.832031 -13.660156 11.289062 -12.484375 11.375 -10.953125 L 9.421875 -10.953125 C 9.347656 -11.921875 9.082031 -12.675781 8.625 -13.21875 C 8.164062 -13.757812 7.472656 -14.03125 6.546875 -14.03125 C 5.429688 -14.03125 4.613281 -13.664062 4.09375 -12.9375 C 3.570312 -12.21875 3.300781 -11.054688 3.28125 -9.453125 L 3.28125 -6.296875 C 3.28125 -4.734375 3.578125 -3.535156 4.171875 -2.703125 C 4.765625 -1.867188 5.617188 -1.453125 6.734375 -1.453125 C 7.785156 -1.453125 8.585938 -1.707031 9.140625 -2.21875 L 9.421875 -2.484375 L 9.421875 -6.0625 L 6.59375 -6.0625 L 6.59375 -7.71875 L 11.375 -7.71875 Z M 11.375 -1.921875 "/></g></g></g><g fill="#5b5b5b" fill-opacity="1"><g transform="translate(839.958053, 462.903334)"><g><path d="M 3.703125 0 L 1.75 0 L 1.75 -15.5 L 3.703125 -15.5 Z M 3.703125 0 "/></g></g></g><g fill="#5b5b5b" fill-opacity="1"><g transform="translate(850.247832, 462.903334)"><g><path d="M 9.109375 -7.171875 L 3.625 -7.171875 L 3.625 -1.671875 L 10.015625 -1.671875 L 10.015625 0 L 1.671875 0 L 1.671875 -15.5 L 9.90625 -15.5 L 9.90625 -13.828125 L 3.625 -13.828125 L 3.625 -8.84375 L 9.109375 -8.84375 Z M 9.109375 -7.171875 "/></g></g></g><g fill="#5b5b5b" fill-opacity="1"><g transform="translate(865.911647, 462.903334)"><g><path d="M 11.796875 0 L 9.84375 0 L 3.625 -11.953125 L 3.625 0 L 1.671875 0 L 1.671875 -15.5 L 3.625 -15.5 L 9.859375 -3.5 L 9.859375 -15.5 L 11.796875 -15.5 Z M 11.796875 0 "/></g></g></g><g fill="#5b5b5b" fill-opacity="1"><g transform="translate(884.2465, 462.903334)"><g><path d="M 9.109375 -7.171875 L 3.625 -7.171875 L 3.625 -1.671875 L 10.015625 -1.671875 L 10.015625 0 L 1.671875 0 L 1.671875 -15.5 L 9.90625 -15.5 L 9.90625 -13.828125 L 3.625 -13.828125 L 3.625 -8.84375 L 9.109375 -8.84375 Z M 9.109375 -7.171875 "/></g></g></g></svg>