<svg xmlns="http://www.w3.org/2000/svg" xmlns:xlink="http://www.w3.org/1999/xlink" width="500" zoomAndPan="magnify" viewBox="0 0 375 374.999991" height="500" preserveAspectRatio="xMidYMid meet" version="1.0"><defs><g/><clipPath id="id1"><path d="M 169 125 L 184.992188 125 L 184.992188 141 L 169 141 Z M 169 125 " clip-rule="nonzero"/></clipPath><clipPath id="id2"><path d="M 157 111.730469 L 167 111.730469 L 167 121 L 157 121 Z M 157 111.730469 " clip-rule="nonzero"/></clipPath></defs><path fill="#0071a8" d="M 120.476562 137.03125 C 135.144531 130.925781 150.175781 129.921875 162.183594 133.25 C 148.53125 127.203125 129.542969 127.363281 111.097656 135.039062 C 81.84375 147.21875 65.046875 173.65625 73.578125 194.097656 C 79.867188 209.164062 98.164062 216.753906 119.070312 214.828125 C 93.542969 208.824219 87.800781 197.59375 85.503906 192.070312 C 77.546875 173.019531 93.207031 148.371094 120.476562 137.03125 Z M 120.476562 137.03125 " fill-opacity="1" fill-rule="nonzero"/><path fill="#62c7e3" d="M 182.105469 151.871094 C 180.496094 148.019531 177.910156 144.769531 174.597656 142.175781 C 163.695312 133.625 144.878906 132.1875 126.699219 139.75 C 113.351562 145.304688 103.199219 154.53125 98.121094 164.492188 C 104.175781 156.789062 113.082031 149.972656 123.976562 145.441406 C 146.800781 135.945312 170.570312 139.640625 180.625 153.308594 C 181.792969 154.898438 182.792969 156.621094 183.566406 158.476562 C 183.660156 158.695312 183.730469 158.921875 183.816406 159.140625 C 183.636719 156.648438 183.085938 154.214844 182.105469 151.871094 Z M 182.105469 151.871094 " fill-opacity="1" fill-rule="nonzero"/><g clip-path="url(#id1)"><path fill="#14bbe2" d="M 184.914062 133.214844 C 179.300781 134.246094 178.460938 135.082031 177.425781 140.691406 C 176.390625 135.082031 175.554688 134.246094 169.941406 133.214844 C 175.554688 132.179688 176.390625 131.34375 177.425781 125.738281 C 178.460938 131.351562 179.300781 132.1875 184.914062 133.214844 Z M 184.914062 133.214844 " fill-opacity="1" fill-rule="nonzero"/></g><g clip-path="url(#id2)"><path fill="#62c7e3" d="M 166.246094 115.972656 C 163.453125 116.773438 162.800781 117.425781 162 120.214844 C 161.199219 117.425781 160.546875 116.773438 157.753906 115.972656 C 160.546875 115.171875 161.199219 114.519531 162 111.730469 C 162.800781 114.519531 163.453125 115.171875 166.246094 115.972656 Z M 166.246094 115.972656 " fill-opacity="1" fill-rule="nonzero"/></g><path fill="#0071a8" d="M 177.425781 118.8125 C 176.03125 119.214844 175.703125 119.542969 175.300781 120.9375 C 174.894531 119.542969 174.570312 119.214844 173.171875 118.8125 C 174.570312 118.410156 174.894531 118.082031 175.300781 116.6875 C 175.703125 118.082031 176.03125 118.410156 177.425781 118.8125 Z M 177.425781 118.8125 " fill-opacity="1" fill-rule="nonzero"/><g fill="#0071a8" fill-opacity="1"><g transform="translate(146.416358, 194.624987)"><g><path d="M 6.3125 -13.03125 L 6.3125 0 L 1.53125 0 L 1.53125 -21 L 6.3125 -21 L 14.65625 -7.96875 L 14.71875 -7.96875 L 14.71875 -21 L 19.5 -21 L 19.5 0 L 14.71875 0 L 6.359375 -13.03125 Z M 6.3125 -13.03125 "/></g></g></g><g fill="#0071a8" fill-opacity="1"><g transform="translate(167.431005, 194.624987)"><g><path d="M 0.578125 -10.515625 C 0.578125 -13.546875 1.613281 -16.113281 3.6875 -18.21875 C 5.757812 -20.320312 8.253906 -21.375 11.171875 -21.375 C 14.109375 -21.375 16.601562 -20.328125 18.65625 -18.234375 C 20.707031 -16.140625 21.734375 -13.566406 21.734375 -10.515625 C 21.734375 -7.441406 20.722656 -4.859375 18.703125 -2.765625 C 16.679688 -0.671875 14.171875 0.375 11.171875 0.375 C 8.097656 0.375 5.5625 -0.660156 3.5625 -2.734375 C 1.570312 -4.816406 0.578125 -7.410156 0.578125 -10.515625 Z M 5.75 -10.515625 C 5.75 -9.410156 5.914062 -8.40625 6.25 -7.5 C 6.59375 -6.59375 7.1875 -5.820312 8.03125 -5.1875 C 8.882812 -4.5625 9.929688 -4.25 11.171875 -4.25 C 12.953125 -4.25 14.296875 -4.859375 15.203125 -6.078125 C 16.109375 -7.304688 16.5625 -8.785156 16.5625 -10.515625 C 16.5625 -12.222656 16.097656 -13.691406 15.171875 -14.921875 C 14.253906 -16.160156 12.921875 -16.78125 11.171875 -16.78125 C 9.441406 -16.78125 8.101562 -16.160156 7.15625 -14.921875 C 6.21875 -13.691406 5.75 -12.222656 5.75 -10.515625 Z M 5.75 -10.515625 "/></g></g></g><g fill="#0071a8" fill-opacity="1"><g transform="translate(189.743171, 194.624987)"><g><path d="M 1.53125 -21 L 9.03125 -21 C 11.050781 -21 12.695312 -20.457031 13.96875 -19.375 C 15.238281 -18.300781 15.875 -16.765625 15.875 -14.765625 C 15.875 -13.222656 15.488281 -11.925781 14.71875 -10.875 C 13.945312 -9.832031 12.898438 -9.097656 11.578125 -8.671875 L 18.8125 0 L 12.71875 0 L 6.3125 -8.296875 L 6.3125 0 L 1.53125 0 Z M 6.3125 -11.6875 L 6.875 -11.6875 C 7.3125 -11.6875 7.679688 -11.691406 7.984375 -11.703125 C 8.296875 -11.722656 8.644531 -11.785156 9.03125 -11.890625 C 9.425781 -11.992188 9.738281 -12.132812 9.96875 -12.3125 C 10.207031 -12.5 10.410156 -12.769531 10.578125 -13.125 C 10.753906 -13.488281 10.84375 -13.925781 10.84375 -14.4375 C 10.84375 -14.945312 10.753906 -15.378906 10.578125 -15.734375 C 10.410156 -16.085938 10.207031 -16.359375 9.96875 -16.546875 C 9.738281 -16.734375 9.425781 -16.875 9.03125 -16.96875 C 8.644531 -17.070312 8.296875 -17.132812 7.984375 -17.15625 C 7.679688 -17.175781 7.3125 -17.1875 6.875 -17.1875 L 6.3125 -17.1875 Z M 6.3125 -11.6875 "/></g></g></g><g fill="#0071a8" fill-opacity="1"><g transform="translate(207.959257, 194.624987)"><g><path d="M 0.203125 -16.796875 L 0.203125 -21 L 14.96875 -21 L 14.96875 -16.796875 L 9.984375 -16.796875 L 9.984375 0 L 5.1875 0 L 5.1875 -16.796875 Z M 0.203125 -16.796875 "/></g></g></g><g fill="#0071a8" fill-opacity="1"><g transform="translate(223.122369, 194.624987)"><g><path d="M 13.546875 -21 L 13.546875 -16.796875 L 6.3125 -16.796875 L 6.3125 -12.625 L 13.234375 -12.625 L 13.234375 -8.421875 L 6.3125 -8.421875 L 6.3125 -4.203125 L 13.546875 -4.203125 L 13.546875 0 L 1.53125 0 L 1.53125 -21 Z M 13.546875 -21 "/></g></g></g><g fill="#0071a8" fill-opacity="1"><g transform="translate(237.878414, 194.624987)"><g><path d="M 6.3125 -21 L 6.3125 -4.203125 L 13.546875 -4.203125 L 13.546875 0 L 1.53125 0 L 1.53125 -21 Z M 6.3125 -21 "/></g></g></g><g fill="#5b5b5b" fill-opacity="1"><g transform="translate(134.313922, 214.307081)"><g><path d="M 1.671875 -2.8125 L 1.671875 0 L 0.78125 0 L 0.78125 -7.171875 L 3.0625 -7.171875 C 3.726562 -7.171875 4.25 -6.972656 4.625 -6.578125 C 5.007812 -6.179688 5.203125 -5.648438 5.203125 -4.984375 C 5.203125 -4.296875 5.019531 -3.765625 4.65625 -3.390625 C 4.289062 -3.015625 3.78125 -2.820312 3.125 -2.8125 Z M 1.671875 -3.578125 L 3.0625 -3.578125 C 3.457031 -3.578125 3.757812 -3.695312 3.96875 -3.9375 C 4.1875 -4.175781 4.296875 -4.519531 4.296875 -4.96875 C 4.296875 -5.40625 4.1875 -5.75 3.96875 -6 C 3.75 -6.257812 3.445312 -6.390625 3.0625 -6.390625 L 1.671875 -6.390625 Z M 1.671875 -3.578125 "/></g></g></g><g fill="#5b5b5b" fill-opacity="1"><g transform="translate(142.147034, 214.307081)"><g><path d="M 2.9375 -2.90625 L 1.6875 -2.90625 L 1.6875 0 L 0.78125 0 L 0.78125 -7.171875 L 2.78125 -7.171875 C 3.488281 -7.171875 4.019531 -6.988281 4.375 -6.625 C 4.738281 -6.257812 4.921875 -5.722656 4.921875 -5.015625 C 4.921875 -4.578125 4.820312 -4.191406 4.625 -3.859375 C 4.4375 -3.523438 4.160156 -3.273438 3.796875 -3.109375 L 5.1875 -0.0625 L 5.1875 0 L 4.21875 0 Z M 1.6875 -3.671875 L 2.78125 -3.671875 C 3.15625 -3.671875 3.453125 -3.789062 3.671875 -4.03125 C 3.898438 -4.28125 4.015625 -4.609375 4.015625 -5.015625 C 4.015625 -5.929688 3.597656 -6.390625 2.765625 -6.390625 L 1.6875 -6.390625 Z M 1.6875 -3.671875 "/></g></g></g><g fill="#5b5b5b" fill-opacity="1"><g transform="translate(149.743665, 214.307081)"><g><path d="M 5.4375 -2.953125 C 5.4375 -1.972656 5.226562 -1.21875 4.8125 -0.6875 C 4.394531 -0.164062 3.800781 0.09375 3.03125 0.09375 C 2.289062 0.09375 1.707031 -0.160156 1.28125 -0.671875 C 0.851562 -1.179688 0.628906 -1.910156 0.609375 -2.859375 L 0.609375 -4.203125 C 0.609375 -5.160156 0.820312 -5.910156 1.25 -6.453125 C 1.675781 -7.003906 2.269531 -7.28125 3.03125 -7.28125 C 3.78125 -7.28125 4.363281 -7.019531 4.78125 -6.5 C 5.207031 -5.976562 5.425781 -5.234375 5.4375 -4.265625 Z M 4.546875 -4.21875 C 4.546875 -4.976562 4.421875 -5.539062 4.171875 -5.90625 C 3.921875 -6.28125 3.539062 -6.46875 3.03125 -6.46875 C 2.53125 -6.46875 2.148438 -6.28125 1.890625 -5.90625 C 1.640625 -5.53125 1.515625 -4.976562 1.515625 -4.25 L 1.515625 -2.953125 C 1.515625 -2.222656 1.640625 -1.664062 1.890625 -1.28125 C 2.148438 -0.894531 2.53125 -0.703125 3.03125 -0.703125 C 3.539062 -0.703125 3.914062 -0.878906 4.15625 -1.234375 C 4.40625 -1.585938 4.535156 -2.132812 4.546875 -2.875 Z M 4.546875 -4.21875 "/></g></g></g><g fill="#5b5b5b" fill-opacity="1"><g transform="translate(158.044807, 214.307081)"><g><path d="M 0.78125 0 L 0.78125 -7.171875 L 2.484375 -7.171875 C 3.316406 -7.171875 3.960938 -6.910156 4.421875 -6.390625 C 4.890625 -5.867188 5.125 -5.128906 5.125 -4.171875 L 5.125 -2.984375 C 5.125 -2.023438 4.890625 -1.285156 4.421875 -0.765625 C 3.953125 -0.253906 3.269531 0 2.375 0 Z M 1.671875 -6.390625 L 1.671875 -0.78125 L 2.40625 -0.78125 C 3.03125 -0.78125 3.488281 -0.957031 3.78125 -1.3125 C 4.082031 -1.675781 4.234375 -2.21875 4.234375 -2.9375 L 4.234375 -4.203125 C 4.234375 -4.960938 4.085938 -5.515625 3.796875 -5.859375 C 3.503906 -6.210938 3.066406 -6.390625 2.484375 -6.390625 Z M 1.671875 -6.390625 "/></g></g></g><g fill="#5b5b5b" fill-opacity="1"><g transform="translate(166.045425, 214.307081)"><g><path d="M 5.046875 -7.171875 L 5.046875 -2.078125 C 5.046875 -1.398438 4.847656 -0.867188 4.453125 -0.484375 C 4.066406 -0.0976562 3.53125 0.09375 2.84375 0.09375 C 2.132812 0.09375 1.59375 -0.09375 1.21875 -0.46875 C 0.84375 -0.84375 0.648438 -1.378906 0.640625 -2.078125 L 0.640625 -7.171875 L 1.53125 -7.171875 L 1.53125 -2.109375 C 1.53125 -1.628906 1.632812 -1.269531 1.84375 -1.03125 C 2.050781 -0.789062 2.382812 -0.671875 2.84375 -0.671875 C 3.300781 -0.671875 3.628906 -0.789062 3.828125 -1.03125 C 4.035156 -1.269531 4.140625 -1.628906 4.140625 -2.109375 L 4.140625 -7.171875 Z M 5.046875 -7.171875 "/></g></g></g><g fill="#5b5b5b" fill-opacity="1"><g transform="translate(173.952431, 214.307081)"><g><path d="M 4.96875 -6.390625 L 3.078125 -6.390625 L 3.078125 0 L 2.171875 0 L 2.171875 -6.390625 L 0.296875 -6.390625 L 0.296875 -7.171875 L 4.96875 -7.171875 Z M 4.96875 -6.390625 "/></g></g></g><g fill="#5b5b5b" fill-opacity="1"><g transform="translate(181.445595, 214.307081)"><g><path d="M 5.4375 -2.953125 C 5.4375 -1.972656 5.226562 -1.21875 4.8125 -0.6875 C 4.394531 -0.164062 3.800781 0.09375 3.03125 0.09375 C 2.289062 0.09375 1.707031 -0.160156 1.28125 -0.671875 C 0.851562 -1.179688 0.628906 -1.910156 0.609375 -2.859375 L 0.609375 -4.203125 C 0.609375 -5.160156 0.820312 -5.910156 1.25 -6.453125 C 1.675781 -7.003906 2.269531 -7.28125 3.03125 -7.28125 C 3.78125 -7.28125 4.363281 -7.019531 4.78125 -6.5 C 5.207031 -5.976562 5.425781 -5.234375 5.4375 -4.265625 Z M 4.546875 -4.21875 C 4.546875 -4.976562 4.421875 -5.539062 4.171875 -5.90625 C 3.921875 -6.28125 3.539062 -6.46875 3.03125 -6.46875 C 2.53125 -6.46875 2.148438 -6.28125 1.890625 -5.90625 C 1.640625 -5.53125 1.515625 -4.976562 1.515625 -4.25 L 1.515625 -2.953125 C 1.515625 -2.222656 1.640625 -1.664062 1.890625 -1.28125 C 2.148438 -0.894531 2.53125 -0.703125 3.03125 -0.703125 C 3.539062 -0.703125 3.914062 -0.878906 4.15625 -1.234375 C 4.40625 -1.585938 4.535156 -2.132812 4.546875 -2.875 Z M 4.546875 -4.21875 "/></g></g></g><g fill="#5b5b5b" fill-opacity="1"><g transform="translate(189.746735, 214.307081)"><g><path d="M 3.90625 -1.8125 C 3.90625 -2.164062 3.804688 -2.4375 3.609375 -2.625 C 3.421875 -2.820312 3.070312 -3.007812 2.5625 -3.1875 C 2.0625 -3.375 1.675781 -3.566406 1.40625 -3.765625 C 1.132812 -3.960938 0.929688 -4.1875 0.796875 -4.4375 C 0.671875 -4.695312 0.609375 -4.988281 0.609375 -5.3125 C 0.609375 -5.882812 0.796875 -6.351562 1.171875 -6.71875 C 1.554688 -7.09375 2.054688 -7.28125 2.671875 -7.28125 C 3.085938 -7.28125 3.457031 -7.179688 3.78125 -6.984375 C 4.113281 -6.796875 4.367188 -6.535156 4.546875 -6.203125 C 4.722656 -5.867188 4.8125 -5.5 4.8125 -5.09375 L 3.90625 -5.09375 C 3.90625 -5.539062 3.796875 -5.882812 3.578125 -6.125 C 3.367188 -6.375 3.066406 -6.5 2.671875 -6.5 C 2.304688 -6.5 2.019531 -6.394531 1.8125 -6.1875 C 1.613281 -5.988281 1.515625 -5.703125 1.515625 -5.328125 C 1.515625 -5.023438 1.625 -4.769531 1.84375 -4.5625 C 2.0625 -4.363281 2.394531 -4.1875 2.84375 -4.03125 C 3.550781 -3.789062 4.054688 -3.5 4.359375 -3.15625 C 4.660156 -2.820312 4.8125 -2.378906 4.8125 -1.828125 C 4.8125 -1.242188 4.625 -0.773438 4.25 -0.421875 C 3.875 -0.078125 3.359375 0.09375 2.703125 0.09375 C 2.285156 0.09375 1.898438 0.00390625 1.546875 -0.171875 C 1.203125 -0.359375 0.925781 -0.613281 0.71875 -0.9375 C 0.519531 -1.269531 0.421875 -1.648438 0.421875 -2.078125 L 1.328125 -2.078125 C 1.328125 -1.640625 1.445312 -1.296875 1.6875 -1.046875 C 1.9375 -0.796875 2.273438 -0.671875 2.703125 -0.671875 C 3.109375 -0.671875 3.410156 -0.769531 3.609375 -0.96875 C 3.804688 -1.175781 3.90625 -1.457031 3.90625 -1.8125 Z M 3.90625 -1.8125 "/></g></g></g><g fill="#5b5b5b" fill-opacity="1"><g transform="translate(197.215275, 214.307081)"><g/></g></g><g fill="#5b5b5b" fill-opacity="1"><g transform="translate(201.76722, 214.307081)"><g><path d="M 0.78125 0 L 0.78125 -7.171875 L 2.484375 -7.171875 C 3.316406 -7.171875 3.960938 -6.910156 4.421875 -6.390625 C 4.890625 -5.867188 5.125 -5.128906 5.125 -4.171875 L 5.125 -2.984375 C 5.125 -2.023438 4.890625 -1.285156 4.421875 -0.765625 C 3.953125 -0.253906 3.269531 0 2.375 0 Z M 1.671875 -6.390625 L 1.671875 -0.78125 L 2.40625 -0.78125 C 3.03125 -0.78125 3.488281 -0.957031 3.78125 -1.3125 C 4.082031 -1.675781 4.234375 -2.21875 4.234375 -2.9375 L 4.234375 -4.203125 C 4.234375 -4.960938 4.085938 -5.515625 3.796875 -5.859375 C 3.503906 -6.210938 3.066406 -6.390625 2.484375 -6.390625 Z M 1.671875 -6.390625 "/></g></g></g><g fill="#5b5b5b" fill-opacity="1"><g transform="translate(209.767841, 214.307081)"><g><path d="M 4.21875 -3.3125 L 1.671875 -3.3125 L 1.671875 -0.78125 L 4.640625 -0.78125 L 4.640625 0 L 0.78125 0 L 0.78125 -7.171875 L 4.578125 -7.171875 L 4.578125 -6.390625 L 1.671875 -6.390625 L 1.671875 -4.09375 L 4.21875 -4.09375 Z M 4.21875 -3.3125 "/></g></g></g><g fill="#5b5b5b" fill-opacity="1"><g transform="translate(217.019607, 214.307081)"><g/></g></g><g fill="#5b5b5b" fill-opacity="1"><g transform="translate(221.571551, 214.307081)"><g><path d="M 5.46875 0 L 4.5625 0 L 4.5625 -3.3125 L 1.671875 -3.3125 L 1.671875 0 L 0.78125 0 L 0.78125 -7.171875 L 1.671875 -7.171875 L 1.671875 -4.09375 L 4.5625 -4.09375 L 4.5625 -7.171875 L 5.46875 -7.171875 Z M 5.46875 0 "/></g></g></g><g fill="#5b5b5b" fill-opacity="1"><g transform="translate(230.069761, 214.307081)"><g><path d="M 1.71875 0 L 0.8125 0 L 0.8125 -7.171875 L 1.71875 -7.171875 Z M 1.71875 0 "/></g></g></g><g fill="#5b5b5b" fill-opacity="1"><g transform="translate(234.833542, 214.307081)"><g><path d="M 5.265625 -0.890625 L 5.109375 -0.6875 C 4.648438 -0.164062 3.984375 0.09375 3.109375 0.09375 C 2.335938 0.09375 1.726562 -0.160156 1.28125 -0.671875 C 0.84375 -1.179688 0.617188 -1.910156 0.609375 -2.859375 L 0.609375 -4.265625 C 0.609375 -5.265625 0.804688 -6.015625 1.203125 -6.515625 C 1.609375 -7.023438 2.210938 -7.28125 3.015625 -7.28125 C 3.703125 -7.28125 4.238281 -7.085938 4.625 -6.703125 C 5.007812 -6.316406 5.222656 -5.773438 5.265625 -5.078125 L 4.359375 -5.078125 C 4.328125 -5.515625 4.203125 -5.859375 3.984375 -6.109375 C 3.773438 -6.367188 3.457031 -6.5 3.03125 -6.5 C 2.507812 -6.5 2.128906 -6.328125 1.890625 -5.984375 C 1.648438 -5.648438 1.523438 -5.113281 1.515625 -4.375 L 1.515625 -2.90625 C 1.515625 -2.1875 1.648438 -1.632812 1.921875 -1.25 C 2.203125 -0.863281 2.601562 -0.671875 3.125 -0.671875 C 3.601562 -0.671875 3.972656 -0.789062 4.234375 -1.03125 L 4.359375 -1.140625 L 4.359375 -2.796875 L 3.046875 -2.796875 L 3.046875 -3.578125 L 5.265625 -3.578125 Z M 5.265625 -0.890625 "/></g></g></g><g fill="#5b5b5b" fill-opacity="1"><g transform="translate(243.036151, 214.307081)"><g><path d="M 1.71875 0 L 0.8125 0 L 0.8125 -7.171875 L 1.71875 -7.171875 Z M 1.71875 0 "/></g></g></g><g fill="#5b5b5b" fill-opacity="1"><g transform="translate(247.799937, 214.307081)"><g><path d="M 4.21875 -3.3125 L 1.671875 -3.3125 L 1.671875 -0.78125 L 4.640625 -0.78125 L 4.640625 0 L 0.78125 0 L 0.78125 -7.171875 L 4.578125 -7.171875 L 4.578125 -6.390625 L 1.671875 -6.390625 L 1.671875 -4.09375 L 4.21875 -4.09375 Z M 4.21875 -3.3125 "/></g></g></g><g fill="#5b5b5b" fill-opacity="1"><g transform="translate(255.051703, 214.307081)"><g><path d="M 5.453125 0 L 4.546875 0 L 1.6875 -5.53125 L 1.6875 0 L 0.78125 0 L 0.78125 -7.171875 L 1.6875 -7.171875 L 4.5625 -1.625 L 4.5625 -7.171875 L 5.453125 -7.171875 Z M 5.453125 0 "/></g></g></g><g fill="#5b5b5b" fill-opacity="1"><g transform="translate(263.54006, 214.307081)"><g><path d="M 4.21875 -3.3125 L 1.671875 -3.3125 L 1.671875 -0.78125 L 4.640625 -0.78125 L 4.640625 0 L 0.78125 0 L 0.78125 -7.171875 L 4.578125 -7.171875 L 4.578125 -6.390625 L 1.671875 -6.390625 L 1.671875 -4.09375 L 4.21875 -4.09375 Z M 4.21875 -3.3125 "/></g></g></g></svg>